<?xml version="1.0" standalone="no"?>
<!DOCTYPE svg PUBLIC "-//W3C//DTD SVG 20010904//EN"
 "http://www.w3.org/TR/2001/REC-SVG-20010904/DTD/svg10.dtd">
<svg version="1.0" xmlns="http://www.w3.org/2000/svg"
 width="180.000000pt" height="180.000000pt" viewBox="0 0 180.000000 180.000000"
 preserveAspectRatio="xMidYMid meet">
<metadata>
Created by potrace 1.10, written by Peter Selinger 2001-2011
</metadata>
<g transform="translate(0.000000,180.000000) scale(0.100000,-0.100000)"
fill="#000000" stroke="none">
<path d="M885 1431 c-43 -26 -53 -40 -142 -196 -44 -77 -142 -248 -218 -380
-175 -301 -175 -302 -175 -342 0 -75 64 -154 134 -167 79 -15 143 26 202 129
l29 50 183 0 184 0 24 28 c32 38 31 72 -5 108 l-29 29 -131 0 -130 0 -37 -65
c-20 -36 -51 -77 -70 -91 -18 -14 -45 -45 -59 -69 -36 -62 -72 -85 -133 -85
-55 0 -92 22 -117 70 -34 65 -31 70 180 435 244 422 274 472 308 505 29 29 36
31 83 28 62 -5 102 -32 142 -95 72 -116 332 -575 332 -587 0 -10 -27 -16 -99
-21 -130 -9 -195 -1 -210 28 -6 12 -24 45 -41 72 -16 28 -36 64 -45 81 -23 45
-69 86 -88 78 -14 -5 -97 -124 -97 -138 0 -3 -13 -27 -30 -53 -32 -50 -42 -95
-16 -74 8 7 45 66 83 131 37 66 70 120 73 120 3 -1 41 -64 84 -141 69 -123 82
-140 100 -135 12 3 97 6 190 6 l168 0 -17 26 c-9 14 -82 139 -162 277 -212
368 -219 380 -250 409 -53 51 -142 64 -198 29z m147 -780 c29 -1 58 -24 58
-46 0 -7 -7 -21 -16 -29 -12 -13 -41 -16 -149 -16 -74 0 -136 4 -140 9 -3 5 3
25 13 43 17 31 23 33 83 38 35 3 78 4 94 3 17 -1 42 -2 57 -2z"/>
</g>
</svg>
